<svg width="12" height="12" viewBox="0 0 12 12" fill="none" xmlns="http://www.w3.org/2000/svg">
<path d="M0 9.49968V11.9997H2.5L9.87333 4.62634L7.37333 2.12634L0 9.49968ZM11.8067 2.69301C11.8685 2.63133 11.9175 2.55807 11.951 2.47743C11.9844 2.39678 12.0016 2.31032 12.0016 2.22301C12.0016 2.1357 11.9844 2.04924 11.951 1.96859C11.9175 1.88794 11.8685 1.81469 11.8067 1.75301L10.2467 0.19301C10.185 0.131207 10.1117 0.0821755 10.0311 0.0487212C9.95043 0.0152668 9.86398 -0.00195312 9.77667 -0.00195312C9.68935 -0.00195312 9.6029 0.0152668 9.52225 0.0487212C9.4416 0.0821755 9.36834 0.131207 9.30667 0.19301L8.08667 1.41301L10.5867 3.91301L11.8067 2.69301Z" fill="#49454F"/>
</svg>
