<?xml version="1.0" encoding="UTF-8"?>
<svg version="1.1"
    xmlns="http://www.w3.org/2000/svg" width="50" height="41">
    <path d="M0 0 C16.5 0 33 0 50 0 C50 13.53 50 27.06 50 41 C33.5 41 17 41 0 41 C0 27.47 0 13.94 0 0 Z " fill="#FAFBFC" transform="translate(0,0)"/>
    <path d="M0 0 C0.71542969 0.26167969 1.43085938 0.52335938 2.16796875 0.79296875 C1.54407983 4.4115245 0.99704105 4.96389645 -1.83203125 7.79296875 C5.09796875 8.12296875 12.02796875 8.45296875 19.16796875 8.79296875 C19.66296875 10.77296875 19.66296875 10.77296875 20.16796875 12.79296875 C19.16796875 13.79296875 19.16796875 13.79296875 16.11694336 13.90649414 C14.76805604 13.90633509 13.41916261 13.90064487 12.0703125 13.890625 C11.00702477 13.88850258 11.00702477 13.88850258 9.92225647 13.88633728 C7.64995163 13.88072318 5.377744 13.86816838 3.10546875 13.85546875 C1.56836079 13.85045556 0.0312513 13.84589234 -1.50585938 13.84179688 C-5.28128767 13.83074917 -9.05664296 13.81347516 -12.83203125 13.79296875 C-12.83203125 8.75262023 -11.61433653 7.98066649 -8.14453125 4.48046875 C-7.27441406 3.57683594 -6.40429688 2.67320312 -5.5078125 1.7421875 C-2.83203125 -0.20703125 -2.83203125 -0.20703125 0 0 Z " fill="#1E276E" transform="translate(20.83203125,5.20703125)"/>
    <path d="M0 0 C1.39120471 0.00015906 2.78241534 0.00585033 4.17358398 0.01586914 C4.90463852 0.01728409 5.63569305 0.01869904 6.38890076 0.02015686 C8.73253406 0.02577131 11.07607313 0.03832617 13.41967773 0.05102539 C15.00496282 0.05603853 16.59024939 0.06060176 18.17553711 0.06469727 C22.06945383 0.07574542 25.96329979 0.09301967 29.85717773 0.11352539 C29.01182262 4.36116695 27.1119636 6.29174863 24.04467773 9.36352539 C23.17198242 10.25555664 22.29928711 11.14758789 21.40014648 12.06665039 C18.85717773 14.11352539 18.85717773 14.11352539 14.85717773 14.11352539 C14.85717773 12.46352539 14.85717773 10.81352539 14.85717773 9.11352539 C16.17717773 8.45352539 17.49717773 7.79352539 18.85717773 7.11352539 C18.85717773 6.45352539 18.85717773 5.79352539 18.85717773 5.11352539 C11.59717773 5.11352539 4.33717773 5.11352539 -3.14282227 5.11352539 C-3.47282227 3.79352539 -3.80282227 2.47352539 -4.14282227 1.11352539 C-3.14282227 0.11352539 -3.14282227 0.11352539 0 0 Z " fill="#8FC9E9" transform="translate(11.142822265625,23.886474609375)"/>
</svg>
