<svg width="14" height="15" viewBox="0 0 14 15" fill="none" xmlns="http://www.w3.org/2000/svg">
<path d="M13.6743 13.201C13.7382 13.2649 13.7888 13.3407 13.8234 13.4242C13.858 13.5076 13.8758 13.5971 13.8758 13.6874C13.8758 13.7777 13.858 13.8672 13.8234 13.9506C13.7888 14.0341 13.7382 14.1099 13.6743 14.1738C13.6104 14.2377 13.5346 14.2883 13.4511 14.3229C13.3677 14.3575 13.2782 14.3753 13.1879 14.3753C13.0975 14.3753 13.0081 14.3575 12.9246 14.3229C12.8412 14.2883 12.7654 14.2377 12.7015 14.1738L7.00038 8.47185L1.29929 14.1738C1.17029 14.3028 0.99532 14.3753 0.812882 14.3753C0.630445 14.3753 0.455479 14.3028 0.326476 14.1738C0.197473 14.0448 0.125 13.8698 0.125 13.6874C0.125 13.505 0.197473 13.33 0.326476 13.201L6.02843 7.49989L0.326476 1.7988C0.197473 1.6698 0.125 1.49483 0.125 1.31239C0.125 1.12996 0.197473 0.954991 0.326476 0.825988C0.455479 0.696985 0.630445 0.624512 0.812882 0.624512C0.99532 0.624512 1.17029 0.696985 1.29929 0.825988L7.00038 6.52794L12.7015 0.825988C12.8305 0.696985 13.0054 0.624512 13.1879 0.624512C13.3703 0.624512 13.5453 0.696985 13.6743 0.825988C13.8033 0.954991 13.8758 1.12996 13.8758 1.31239C13.8758 1.49483 13.8033 1.6698 13.6743 1.7988L7.97234 7.49989L13.6743 13.201Z" fill="black"/>
</svg>
